<svg width="233" height="416" viewBox="0 0 233 416" fill="none" xmlns="http://www.w3.org/2000/svg">
<g filter="url(#filter0_d_1_14)">
<path d="M83.4783 229.913L81.0001 231.604L81.2838 232.02L81.6877 232.32L83.4783 229.913ZM4 136.87C4 145.706 11.1634 152.87 20 152.87C28.8366 152.87 36 145.706 36 136.87C36 128.033 28.8366 120.87 20 120.87C11.1634 120.87 4 128.033 4 136.87ZM67.4783 136.87C67.4783 145.706 74.6417 152.87 83.4783 152.87C92.3148 152.87 99.4783 145.706 99.4783 136.87C99.4783 128.033 92.3148 120.87 83.4783 120.87C74.6417 120.87 67.4783 128.033 67.4783 136.87ZM127.826 147.304L130.635 146.251L130.635 146.251L127.826 147.304ZM103.13 71.6522C103.13 80.4887 110.294 87.6522 119.13 87.6522C127.967 87.6522 135.13 80.4887 135.13 71.6522C135.13 62.8156 127.967 55.6522 119.13 55.6522C110.294 55.6522 103.13 62.8156 103.13 71.6522ZM181.739 115.13L178.766 114.73L178.766 114.73L181.739 115.13ZM155.304 16C155.304 24.8366 162.468 32 171.304 32C180.141 32 187.304 24.8366 187.304 16C187.304 7.16344 180.141 0 171.304 0C162.468 0 155.304 7.16344 155.304 16ZM198.261 241.217L200.788 242.834L200.788 242.834L198.261 241.217ZM202.261 180.348C202.261 189.184 209.424 196.348 218.261 196.348C227.097 196.348 234.261 189.184 234.261 180.348C234.261 171.511 227.097 164.348 218.261 164.348C209.424 164.348 202.261 171.511 202.261 180.348ZM138.783 416C138.783 424.837 145.946 432 154.783 432C163.619 432 170.783 424.837 170.783 416C170.783 407.163 163.619 400 154.783 400C145.946 400 138.783 407.163 138.783 416ZM156.573 280.549L85.2689 227.506L81.6877 232.32L152.992 285.364L156.573 280.549ZM85.9565 228.222L22.4782 135.179L17.5218 138.56L81.0001 231.604L85.9565 228.222ZM86.4783 229.913V136.87H80.4783V229.913H86.4783ZM154.783 193.391C157.195 191.608 157.195 191.608 157.195 191.608C157.195 191.608 157.195 191.608 157.195 191.608C157.194 191.607 157.194 191.606 157.193 191.605C157.191 191.602 157.188 191.598 157.183 191.592C157.175 191.58 157.161 191.562 157.143 191.538C157.108 191.489 157.054 191.416 156.983 191.319C156.841 191.124 156.63 190.834 156.358 190.457C155.814 189.703 155.027 188.601 154.059 187.216C152.121 184.445 149.461 180.549 146.575 176.049C140.771 166.999 134.178 155.699 130.635 146.251L125.017 148.358C128.795 158.432 135.681 170.176 141.525 179.288C144.463 183.87 147.169 187.835 149.142 190.655C150.128 192.066 150.932 193.191 151.491 193.966C151.771 194.354 151.989 194.654 152.138 194.858C152.212 194.96 152.27 195.038 152.309 195.091C152.328 195.118 152.343 195.138 152.353 195.152C152.359 195.159 152.363 195.164 152.365 195.168C152.367 195.17 152.368 195.171 152.369 195.172C152.369 195.173 152.369 195.174 152.37 195.174C152.37 195.174 152.37 195.175 154.783 193.391ZM130.635 146.251C125.583 132.779 123.423 114.251 122.558 98.8679C122.127 91.2206 122.02 84.4325 122.021 79.5575C122.021 77.121 122.048 75.1648 122.075 73.8211C122.089 73.1493 122.102 72.6307 122.112 72.2819C122.117 72.1076 122.121 71.9756 122.124 71.8882C122.126 71.8445 122.127 71.812 122.127 71.7908C122.128 71.7802 122.128 71.7725 122.128 71.7676C122.128 71.7652 122.128 71.7635 122.128 71.7625C122.128 71.762 122.128 71.7618 122.128 71.7616C122.128 71.7616 122.128 71.7617 119.13 71.6522C116.132 71.5426 116.132 71.5432 116.132 71.5439C116.132 71.5443 116.132 71.5452 116.132 71.5462C116.132 71.5481 116.132 71.5508 116.132 71.5542C116.132 71.5609 116.131 71.5705 116.131 71.583C116.13 71.608 116.129 71.6445 116.127 71.6921C116.124 71.7873 116.12 71.9272 116.115 72.1098C116.104 72.4749 116.09 73.0107 116.076 73.7005C116.049 75.08 116.021 77.0763 116.021 79.5568C116.02 84.5158 116.129 91.4199 116.567 99.205C117.438 114.687 119.627 133.985 125.017 148.358L130.635 146.251ZM154.783 193.391C157.477 194.711 157.477 194.71 157.477 194.71C157.478 194.709 157.478 194.709 157.478 194.708C157.479 194.706 157.48 194.703 157.482 194.7C157.485 194.694 157.49 194.685 157.495 194.673C157.507 194.649 157.524 194.614 157.546 194.569C157.59 194.477 157.656 194.343 157.741 194.166C157.91 193.814 158.159 193.295 158.476 192.625C159.11 191.285 160.018 189.339 161.12 186.906C163.324 182.04 166.308 175.217 169.429 167.384C175.644 151.785 182.502 131.934 184.712 115.531L178.766 114.73C176.659 130.362 170.039 149.642 163.855 165.164C160.776 172.892 157.83 179.627 155.655 184.43C154.567 186.831 153.673 188.747 153.052 190.06C152.741 190.716 152.499 191.222 152.335 191.562C152.253 191.732 152.191 191.861 152.149 191.947C152.128 191.99 152.113 192.021 152.103 192.042C152.098 192.053 152.094 192.061 152.091 192.065C152.09 192.068 152.089 192.07 152.089 192.071C152.089 192.071 152.089 192.072 152.088 192.072C152.088 192.072 152.088 192.072 154.783 193.391ZM184.712 115.531C187.375 95.7762 184.699 70.6236 181.432 50.6151C179.792 40.5682 177.989 31.738 176.596 25.4182C175.899 22.2574 175.304 19.7222 174.882 17.9741C174.672 17.1 174.504 16.4225 174.389 15.9618C174.331 15.7314 174.287 15.5553 174.257 15.4358C174.241 15.3761 174.23 15.3305 174.222 15.2994C174.218 15.2839 174.215 15.272 174.213 15.2637C174.212 15.2596 174.211 15.2564 174.21 15.2541C174.21 15.253 174.21 15.2519 174.209 15.2514C174.209 15.2506 174.209 15.25 171.304 16C168.4 16.75 168.4 16.7499 168.4 16.75C168.4 16.7504 168.4 16.7507 168.4 16.7514C168.4 16.7528 168.401 16.7551 168.402 16.7584C168.403 16.7648 168.406 16.7749 168.41 16.7886C168.417 16.8161 168.427 16.8579 168.442 16.914C168.47 17.026 168.513 17.1946 168.568 17.4171C168.68 17.8623 168.843 18.5234 169.05 19.3803C169.463 21.0944 170.049 23.5912 170.736 26.71C172.112 32.9494 173.892 41.6684 175.511 51.5819C178.762 71.4942 181.303 95.9068 178.766 114.73L184.712 115.531ZM154.783 282.957C156.522 285.401 156.522 285.4 156.523 285.4C156.523 285.4 156.524 285.399 156.525 285.399C156.526 285.398 156.528 285.397 156.53 285.395C156.534 285.392 156.541 285.387 156.549 285.382C156.565 285.37 156.589 285.353 156.62 285.331C156.682 285.286 156.772 285.221 156.89 285.136C157.125 284.966 157.468 284.716 157.909 284.392C158.789 283.744 160.057 282.799 161.617 281.604C164.734 279.215 169.024 275.821 173.717 271.799C183.037 263.811 194.194 253.139 200.788 242.834L195.734 239.6C189.642 249.121 179.059 259.318 169.812 267.244C165.221 271.178 161.02 274.502 157.967 276.842C156.442 278.011 155.205 278.932 154.352 279.56C153.926 279.874 153.596 280.114 153.373 280.275C153.262 280.355 153.178 280.415 153.123 280.455C153.095 280.475 153.074 280.49 153.061 280.5C153.054 280.504 153.049 280.508 153.047 280.51C153.045 280.511 153.044 280.512 153.043 280.512C153.043 280.512 153.043 280.512 153.043 280.512C153.043 280.512 153.043 280.512 154.783 282.957ZM200.788 242.834C207.798 231.879 212.892 216.275 216.219 203.643C217.895 197.283 219.143 191.592 219.973 187.49C220.388 185.438 220.699 183.781 220.907 182.633C221.011 182.06 221.089 181.613 221.141 181.308C221.167 181.156 221.187 181.039 221.2 180.959C221.207 180.919 221.212 180.888 221.216 180.867C221.218 180.857 221.219 180.848 221.22 180.843C221.22 180.84 221.221 180.837 221.221 180.836C221.221 180.835 221.221 180.834 221.221 180.834C221.221 180.833 221.221 180.832 218.261 180.348C215.3 179.863 215.3 179.863 215.3 179.863C215.3 179.863 215.3 179.863 215.3 179.864C215.3 179.864 215.3 179.866 215.3 179.868C215.299 179.871 215.298 179.878 215.296 179.886C215.294 179.904 215.289 179.93 215.283 179.966C215.271 180.038 215.253 180.147 215.228 180.292C215.178 180.58 215.103 181.009 215.003 181.564C214.801 182.676 214.498 184.292 214.092 186.3C213.279 190.318 212.056 195.892 210.417 202.115C207.116 214.649 202.21 229.48 195.734 239.6L200.788 242.834ZM157.783 416V282.957H151.783V416H157.783ZM157.783 282.957V193.391H151.783V282.957H157.783Z" fill="url(#paint0_linear_1_14)"/>
<path d="M83.4783 229.913L81.0001 231.604L81.2838 232.02L81.6877 232.32L83.4783 229.913ZM4 136.87C4 145.706 11.1634 152.87 20 152.87C28.8366 152.87 36 145.706 36 136.87C36 128.033 28.8366 120.87 20 120.87C11.1634 120.87 4 128.033 4 136.87ZM67.4783 136.87C67.4783 145.706 74.6417 152.87 83.4783 152.87C92.3148 152.87 99.4783 145.706 99.4783 136.87C99.4783 128.033 92.3148 120.87 83.4783 120.87C74.6417 120.87 67.4783 128.033 67.4783 136.87ZM127.826 147.304L130.635 146.251L130.635 146.251L127.826 147.304ZM103.13 71.6522C103.13 80.4887 110.294 87.6522 119.13 87.6522C127.967 87.6522 135.13 80.4887 135.13 71.6522C135.13 62.8156 127.967 55.6522 119.13 55.6522C110.294 55.6522 103.13 62.8156 103.13 71.6522ZM181.739 115.13L178.766 114.73L178.766 114.73L181.739 115.13ZM155.304 16C155.304 24.8366 162.468 32 171.304 32C180.141 32 187.304 24.8366 187.304 16C187.304 7.16344 180.141 0 171.304 0C162.468 0 155.304 7.16344 155.304 16ZM198.261 241.217L200.788 242.834L200.788 242.834L198.261 241.217ZM202.261 180.348C202.261 189.184 209.424 196.348 218.261 196.348C227.097 196.348 234.261 189.184 234.261 180.348C234.261 171.511 227.097 164.348 218.261 164.348C209.424 164.348 202.261 171.511 202.261 180.348ZM138.783 416C138.783 424.837 145.946 432 154.783 432C163.619 432 170.783 424.837 170.783 416C170.783 407.163 163.619 400 154.783 400C145.946 400 138.783 407.163 138.783 416ZM156.573 280.549L85.2689 227.506L81.6877 232.32L152.992 285.364L156.573 280.549ZM85.9565 228.222L22.4782 135.179L17.5218 138.56L81.0001 231.604L85.9565 228.222ZM86.4783 229.913V136.87H80.4783V229.913H86.4783ZM154.783 193.391C157.195 191.608 157.195 191.608 157.195 191.608C157.195 191.608 157.195 191.608 157.195 191.608C157.194 191.607 157.194 191.606 157.193 191.605C157.191 191.602 157.188 191.598 157.183 191.592C157.175 191.58 157.161 191.562 157.143 191.538C157.108 191.489 157.054 191.416 156.983 191.319C156.841 191.124 156.63 190.834 156.358 190.457C155.814 189.703 155.027 188.601 154.059 187.216C152.121 184.445 149.461 180.549 146.575 176.049C140.771 166.999 134.178 155.699 130.635 146.251L125.017 148.358C128.795 158.432 135.681 170.176 141.525 179.288C144.463 183.87 147.169 187.835 149.142 190.655C150.128 192.066 150.932 193.191 151.491 193.966C151.771 194.354 151.989 194.654 152.138 194.858C152.212 194.96 152.27 195.038 152.309 195.091C152.328 195.118 152.343 195.138 152.353 195.152C152.359 195.159 152.363 195.164 152.365 195.168C152.367 195.17 152.368 195.171 152.369 195.172C152.369 195.173 152.369 195.174 152.37 195.174C152.37 195.174 152.37 195.175 154.783 193.391ZM130.635 146.251C125.583 132.779 123.423 114.251 122.558 98.8679C122.127 91.2206 122.02 84.4325 122.021 79.5575C122.021 77.121 122.048 75.1648 122.075 73.8211C122.089 73.1493 122.102 72.6307 122.112 72.2819C122.117 72.1076 122.121 71.9756 122.124 71.8882C122.126 71.8445 122.127 71.812 122.127 71.7908C122.128 71.7802 122.128 71.7725 122.128 71.7676C122.128 71.7652 122.128 71.7635 122.128 71.7625C122.128 71.762 122.128 71.7618 122.128 71.7616C122.128 71.7616 122.128 71.7617 119.13 71.6522C116.132 71.5426 116.132 71.5432 116.132 71.5439C116.132 71.5443 116.132 71.5452 116.132 71.5462C116.132 71.5481 116.132 71.5508 116.132 71.5542C116.132 71.5609 116.131 71.5705 116.131 71.583C116.13 71.608 116.129 71.6445 116.127 71.6921C116.124 71.7873 116.12 71.9272 116.115 72.1098C116.104 72.4749 116.09 73.0107 116.076 73.7005C116.049 75.08 116.021 77.0763 116.021 79.5568C116.02 84.5158 116.129 91.4199 116.567 99.205C117.438 114.687 119.627 133.985 125.017 148.358L130.635 146.251ZM154.783 193.391C157.477 194.711 157.477 194.71 157.477 194.71C157.478 194.709 157.478 194.709 157.478 194.708C157.479 194.706 157.48 194.703 157.482 194.7C157.485 194.694 157.49 194.685 157.495 194.673C157.507 194.649 157.524 194.614 157.546 194.569C157.59 194.477 157.656 194.343 157.741 194.166C157.91 193.814 158.159 193.295 158.476 192.625C159.11 191.285 160.018 189.339 161.12 186.906C163.324 182.04 166.308 175.217 169.429 167.384C175.644 151.785 182.502 131.934 184.712 115.531L178.766 114.73C176.659 130.362 170.039 149.642 163.855 165.164C160.776 172.892 157.83 179.627 155.655 184.43C154.567 186.831 153.673 188.747 153.052 190.06C152.741 190.716 152.499 191.222 152.335 191.562C152.253 191.732 152.191 191.861 152.149 191.947C152.128 191.99 152.113 192.021 152.103 192.042C152.098 192.053 152.094 192.061 152.091 192.065C152.09 192.068 152.089 192.07 152.089 192.071C152.089 192.071 152.089 192.072 152.088 192.072C152.088 192.072 152.088 192.072 154.783 193.391ZM184.712 115.531C187.375 95.7762 184.699 70.6236 181.432 50.6151C179.792 40.5682 177.989 31.738 176.596 25.4182C175.899 22.2574 175.304 19.7222 174.882 17.9741C174.672 17.1 174.504 16.4225 174.389 15.9618C174.331 15.7314 174.287 15.5553 174.257 15.4358C174.241 15.3761 174.23 15.3305 174.222 15.2994C174.218 15.2839 174.215 15.272 174.213 15.2637C174.212 15.2596 174.211 15.2564 174.21 15.2541C174.21 15.253 174.21 15.2519 174.209 15.2514C174.209 15.2506 174.209 15.25 171.304 16C168.4 16.75 168.4 16.7499 168.4 16.75C168.4 16.7504 168.4 16.7507 168.4 16.7514C168.4 16.7528 168.401 16.7551 168.402 16.7584C168.403 16.7648 168.406 16.7749 168.41 16.7886C168.417 16.8161 168.427 16.8579 168.442 16.914C168.47 17.026 168.513 17.1946 168.568 17.4171C168.68 17.8623 168.843 18.5234 169.05 19.3803C169.463 21.0944 170.049 23.5912 170.736 26.71C172.112 32.9494 173.892 41.6684 175.511 51.5819C178.762 71.4942 181.303 95.9068 178.766 114.73L184.712 115.531ZM154.783 282.957C156.522 285.401 156.522 285.4 156.523 285.4C156.523 285.4 156.524 285.399 156.525 285.399C156.526 285.398 156.528 285.397 156.53 285.395C156.534 285.392 156.541 285.387 156.549 285.382C156.565 285.37 156.589 285.353 156.62 285.331C156.682 285.286 156.772 285.221 156.89 285.136C157.125 284.966 157.468 284.716 157.909 284.392C158.789 283.744 160.057 282.799 161.617 281.604C164.734 279.215 169.024 275.821 173.717 271.799C183.037 263.811 194.194 253.139 200.788 242.834L195.734 239.6C189.642 249.121 179.059 259.318 169.812 267.244C165.221 271.178 161.02 274.502 157.967 276.842C156.442 278.011 155.205 278.932 154.352 279.56C153.926 279.874 153.596 280.114 153.373 280.275C153.262 280.355 153.178 280.415 153.123 280.455C153.095 280.475 153.074 280.49 153.061 280.5C153.054 280.504 153.049 280.508 153.047 280.51C153.045 280.511 153.044 280.512 153.043 280.512C153.043 280.512 153.043 280.512 153.043 280.512C153.043 280.512 153.043 280.512 154.783 282.957ZM200.788 242.834C207.798 231.879 212.892 216.275 216.219 203.643C217.895 197.283 219.143 191.592 219.973 187.49C220.388 185.438 220.699 183.781 220.907 182.633C221.011 182.06 221.089 181.613 221.141 181.308C221.167 181.156 221.187 181.039 221.2 180.959C221.207 180.919 221.212 180.888 221.216 180.867C221.218 180.857 221.219 180.848 221.22 180.843C221.22 180.84 221.221 180.837 221.221 180.836C221.221 180.835 221.221 180.834 221.221 180.834C221.221 180.833 221.221 180.832 218.261 180.348C215.3 179.863 215.3 179.863 215.3 179.863C215.3 179.863 215.3 179.863 215.3 179.864C215.3 179.864 215.3 179.866 215.3 179.868C215.299 179.871 215.298 179.878 215.296 179.886C215.294 179.904 215.289 179.93 215.283 179.966C215.271 180.038 215.253 180.147 215.228 180.292C215.178 180.58 215.103 181.009 215.003 181.564C214.801 182.676 214.498 184.292 214.092 186.3C213.279 190.318 212.056 195.892 210.417 202.115C207.116 214.649 202.21 229.48 195.734 239.6L200.788 242.834ZM157.783 416V282.957H151.783V416H157.783ZM157.783 282.957V193.391H151.783V282.957H157.783Z" fill="url(#paint1_linear_1_14)" fill-opacity="0.19"/>
</g>
<defs>
<filter id="filter0_d_1_14" x="0" y="0" width="238.261" height="440" filterUnits="userSpaceOnUse" color-interpolation-filters="sRGB">
<feFlood flood-opacity="0" result="BackgroundImageFix"/>
<feColorMatrix in="SourceAlpha" type="matrix" values="0 0 0 0 0 0 0 0 0 0 0 0 0 0 0 0 0 0 127 0" result="hardAlpha"/>
<feOffset dy="4"/>
<feGaussianBlur stdDeviation="2"/>
<feComposite in2="hardAlpha" operator="out"/>
<feColorMatrix type="matrix" values="0 0 0 0 0 0 0 0 0 0 0 0 0 0 0 0 0 0 0.25 0"/>
<feBlend mode="normal" in2="BackgroundImageFix" result="effect1_dropShadow_1_14"/>
<feBlend mode="normal" in="SourceGraphic" in2="effect1_dropShadow_1_14" result="shape"/>
</filter>
<linearGradient id="paint0_linear_1_14" x1="202.609" y1="409.043" x2="-16.5217" y2="89.913" gradientUnits="userSpaceOnUse">
<stop stop-color="#5BE7C4"/>
<stop offset="0.553322" stop-color="#53CEDC"/>
<stop offset="1" stop-color="#4FC1E9"/>
</linearGradient>
<linearGradient id="paint1_linear_1_14" x1="239.13" y1="447.304" x2="48.6957" y2="48.1739" gradientUnits="userSpaceOnUse">
<stop stop-color="#7A57D1" stop-opacity="0"/>
<stop offset="1" stop-color="#7A57D1"/>
</linearGradient>
</defs>
</svg>
